<?xml version="1.0" encoding="UTF-8" standalone="no"?>
<!-- Created with Inkscape (http://www.inkscape.org/) -->

<svg
   width="210mm"
   height="297mm"
   viewBox="0 0 210 297"
   version="1.1"
   id="svg5"
   sodipodi:docname="f5.svg"
   inkscape:version="1.1.2 (0a00cf5339, 2022-02-04)"
   inkscape:export-filename="/home/ljma/MEOCloud/aulas/2023-24/s2/IntroAstro/aulas/a2/figs/f5.png"
   inkscape:export-xdpi="151"
   inkscape:export-ydpi="151"
   xmlns:inkscape="http://www.inkscape.org/namespaces/inkscape"
   xmlns:sodipodi="http://sodipodi.sourceforge.net/DTD/sodipodi-0.dtd"
   xmlns="http://www.w3.org/2000/svg"
   xmlns:svg="http://www.w3.org/2000/svg"
   xmlns:ns2="http://www.iki.fi/pav/software/textext/">
  <sodipodi:namedview
     id="namedview7"
     pagecolor="#ffffff"
     bordercolor="#666666"
     borderopacity="1.0"
     inkscape:pageshadow="2"
     inkscape:pageopacity="1"
     inkscape:pagecheckerboard="0"
     inkscape:document-units="mm"
     showgrid="false"
     inkscape:zoom="1"
     inkscape:cx="533"
     inkscape:cy="185.5"
     inkscape:window-width="1920"
     inkscape:window-height="1016"
     inkscape:window-x="0"
     inkscape:window-y="27"
     inkscape:window-maximized="1"
     inkscape:current-layer="layer1" />
  <defs
     id="defs2">
    <marker
       style="overflow:visible"
       id="Arrow2Mstart"
       refX="0.0"
       refY="0.0"
       orient="auto"
       inkscape:stockid="Arrow2Mstart"
       inkscape:isstock="true">
      <path
         transform="scale(0.6) translate(0,0)"
         d="M 8.7185878,4.0337352 L -2.2072895,0.016013256 L 8.7185884,-4.0017078 C 6.9730900,-1.6296469 6.9831476,1.6157441 8.7185878,4.0337352 z "
         style="stroke:context-stroke;fill-rule:evenodd;fill:context-stroke;stroke-width:0.62500000;stroke-linejoin:round"
         id="path965" />
    </marker>
    <marker
       style="overflow:visible"
       id="marker11581"
       refX="0.0"
       refY="0.0"
       orient="auto"
       inkscape:stockid="Arrow2Lstart"
       inkscape:isstock="true">
      <path
         transform="scale(1.1) translate(1,0)"
         d="M 8.7185878,4.0337352 L -2.2072895,0.016013256 L 8.7185884,-4.0017078 C 6.9730900,-1.6296469 6.9831476,1.6157441 8.7185878,4.0337352 z "
         style="stroke:context-stroke;fill-rule:evenodd;fill:context-stroke;stroke-width:0.62500000;stroke-linejoin:round"
         id="path11579" />
    </marker>
    <marker
       style="overflow:visible"
       id="Arrow1Mstart"
       refX="0.0"
       refY="0.0"
       orient="auto"
       inkscape:stockid="Arrow1Mstart"
       inkscape:isstock="true">
      <path
         transform="scale(0.4) translate(10,0)"
         style="fill-rule:evenodd;fill:context-stroke;stroke:context-stroke;stroke-width:1.0pt"
         d="M 0.0,0.0 L 5.0,-5.0 L -12.5,0.0 L 5.0,5.0 L 0.0,0.0 z "
         id="path947" />
    </marker>
    <marker
       style="overflow:visible"
       id="Arrow2Lstart"
       refX="0.0"
       refY="0.0"
       orient="auto"
       inkscape:stockid="Arrow2Lstart"
       inkscape:isstock="true">
      <path
         transform="scale(1.1) translate(1,0)"
         d="M 8.7185878,4.0337352 L -2.2072895,0.016013256 L 8.7185884,-4.0017078 C 6.9730900,-1.6296469 6.9831476,1.6157441 8.7185878,4.0337352 z "
         style="stroke:context-stroke;fill-rule:evenodd;fill:context-stroke;stroke-width:0.62500000;stroke-linejoin:round"
         id="path959" />
    </marker>
    <marker
       style="overflow:visible;"
       id="marker1235"
       refX="0.0"
       refY="0.0"
       orient="auto"
       inkscape:stockid="Arrow2Lend"
       inkscape:isstock="true">
      <path
         transform="scale(1.1) rotate(180) translate(1,0)"
         d="M 8.7185878,4.0337352 L -2.2072895,0.016013256 L 8.7185884,-4.0017078 C 6.9730900,-1.6296469 6.9831476,1.6157441 8.7185878,4.0337352 z "
         style="stroke:context-stroke;fill-rule:evenodd;fill:context-stroke;stroke-width:0.62500000;stroke-linejoin:round;"
         id="path1233" />
    </marker>
    <marker
       style="overflow:visible;"
       id="Arrow2Mend"
       refX="0.0"
       refY="0.0"
       orient="auto"
       inkscape:stockid="Arrow2Mend"
       inkscape:isstock="true">
      <path
         transform="scale(0.6) rotate(180) translate(0,0)"
         d="M 8.7185878,4.0337352 L -2.2072895,0.016013256 L 8.7185884,-4.0017078 C 6.9730900,-1.6296469 6.9831476,1.6157441 8.7185878,4.0337352 z "
         style="stroke:context-stroke;fill-rule:evenodd;fill:context-stroke;stroke-width:0.62500000;stroke-linejoin:round;"
         id="path968" />
    </marker>
    <marker
       style="overflow:visible;"
       id="Arrow1Mend"
       refX="0.0"
       refY="0.0"
       orient="auto"
       inkscape:stockid="Arrow1Mend"
       inkscape:isstock="true">
      <path
         transform="scale(0.4) rotate(180) translate(10,0)"
         style="fill-rule:evenodd;fill:context-stroke;stroke:context-stroke;stroke-width:1.0pt;"
         d="M 0.0,0.0 L 5.0,-5.0 L -12.5,0.0 L 5.0,5.0 L 0.0,0.0 z "
         id="path950" />
    </marker>
    <marker
       style="overflow:visible;"
       id="Arrow1Lend"
       refX="0.0"
       refY="0.0"
       orient="auto"
       inkscape:stockid="Arrow1Lend"
       inkscape:isstock="true">
      <path
         transform="scale(0.8) rotate(180) translate(12.5,0)"
         style="fill-rule:evenodd;fill:context-stroke;stroke:context-stroke;stroke-width:1.0pt;"
         d="M 0.0,0.0 L 5.0,-5.0 L -12.5,0.0 L 5.0,5.0 L 0.0,0.0 z "
         id="path944" />
    </marker>
    <marker
       style="overflow:visible;"
       id="Arrow2Lend"
       refX="0.0"
       refY="0.0"
       orient="auto"
       inkscape:stockid="Arrow2Lend"
       inkscape:isstock="true">
      <path
         transform="scale(1.1) rotate(180) translate(1,0)"
         d="M 8.7185878,4.0337352 L -2.2072895,0.016013256 L 8.7185884,-4.0017078 C 6.9730900,-1.6296469 6.9831476,1.6157441 8.7185878,4.0337352 z "
         style="stroke:context-stroke;fill-rule:evenodd;fill:context-stroke;stroke-width:0.62500000;stroke-linejoin:round;"
         id="path962" />
    </marker>
  </defs>
  <g
     inkscape:label="Layer 1"
     inkscape:groupmode="layer"
     id="layer1">
    <path
       style="fill:none;stroke:#000000;stroke-width:0.26458299;stroke-linecap:butt;stroke-linejoin:miter;stroke-opacity:1;stroke-miterlimit:4;stroke-dasharray:0.52916597,0.52916597;stroke-dashoffset:0"
       d="m 23.659768,51.924979 159.612552,0"
       id="path6574"
       sodipodi:nodetypes="cc" />
    <path
       style="fill:none;stroke:#ff0000;stroke-width:0.264583px;stroke-linecap:butt;stroke-linejoin:miter;stroke-opacity:1"
       d="M 51.047925,51.924979 H 166.51792"
       id="path857" />
    <path
       style="fill:none;stroke:#000000;stroke-width:0.665;stroke-linecap:butt;stroke-linejoin:miter;stroke-miterlimit:4;stroke-dasharray:none;stroke-opacity:1;marker-start:url(#Arrow1Mstart);marker-end:url(#Arrow1Mend)"
       d="M 112.05623,26.795478 V 77.054481"
       id="path859"
       sodipodi:nodetypes="cc" />
    <path
       style="fill:none;stroke:#000000;stroke-width:0.264583;stroke-linecap:butt;stroke-linejoin:miter;stroke-miterlimit:4;stroke-dasharray:0.793749, 0.793749;stroke-dashoffset:0;stroke-opacity:1"
       d="m 166.47926,24.732248 0,56.760354"
       id="path1391"
       sodipodi:nodetypes="cc" />
    <path
       style="fill:none;stroke:#0000ff;stroke-width:0.264583px;stroke-linecap:butt;stroke-linejoin:miter;stroke-opacity:1"
       d="M 50.937222,33.18614 166.54263,68.951983"
       id="path1506"
       sodipodi:nodetypes="cc" />
    <path
       style="fill:none;stroke:#0000ff;stroke-width:0.264583px;stroke-linecap:butt;stroke-linejoin:miter;stroke-opacity:1"
       d="m 50.937222,25.248635 61.160138,18.921641 54.44527,24.781707"
       id="path1527"
       sodipodi:nodetypes="ccc" />
    <path
       style="fill:none;stroke:#0000ff;stroke-width:0.2;stroke-linecap:butt;stroke-linejoin:miter;stroke-miterlimit:4;stroke-dasharray:none;stroke-opacity:1;marker-end:url(#marker1235)"
       d="m 64.881804,37.501781 5.023002,1.551146"
       id="path2273"
       sodipodi:nodetypes="cc" />
    <path
       style="fill:none;stroke:#0000ff;stroke-width:0.2;stroke-linecap:butt;stroke-linejoin:miter;stroke-miterlimit:4;stroke-dasharray:none;stroke-opacity:1;marker-end:url(#marker1235)"
       d="m 64.881804,29.564276 5.023002,1.551146"
       id="path2587"
       sodipodi:nodetypes="cc" />
    <path
       style="fill:none;stroke:#0000ff;stroke-width:0.2;stroke-linecap:butt;stroke-linejoin:miter;stroke-miterlimit:4;stroke-dasharray:none;stroke-opacity:1;marker-end:url(#marker1235)"
       d="m 141.93546,61.33776 5.20498,1.6105"
       id="path2589"
       sodipodi:nodetypes="cc" />
    <path
       style="fill:none;stroke:#0000ff;stroke-width:0.2;stroke-linecap:butt;stroke-linejoin:miter;stroke-miterlimit:4;stroke-dasharray:none;stroke-opacity:1;marker-end:url(#marker1235)"
       d="m 143.65554,58.540012 4.58529,2.087755"
       id="path2591"
       sodipodi:nodetypes="cc" />
    <g
       transform="matrix(1.05833,0,0,1.05833,32.445204,22.567332)"
       ns2:version="1.8.2"
       ns2:texconverter="pdflatex"
       ns2:pdfconverter="inkscape"
       ns2:text="$O_2$"
       ns2:preamble="/home/ljma/.config/inkscape/extensions/textext/default_packages.tex"
       ns2:scale="3.0"
       ns2:alignment="middle center"
       ns2:stroke-to-path="0"
       ns2:jacobian_sqrt="1.05833"
       id="g3294"
       style="fill:#0000ff;fill-opacity:1">
      <defs
         id="id-8ce60bd3-f3d5-4ddc-8b69-0ac3328d2d7f">
        <g
           id="id-b9ddcc49-38a3-4e1b-aab8-a8d6e50d2f6c">
          <symbol
             overflow="visible"
             id="id-7fb34fa6-81c1-4b39-953f-db18c6f0bac8">
            <path
               style="stroke:none"
               d=""
               id="id-b5cd702d-14d8-48ad-951b-f160a5fc7687" />
          </symbol>
          <symbol
             overflow="visible"
             id="id-41eb1642-d794-4e64-96dd-4a00d56685ec">
            <path
               style="stroke:none"
               d="m 7.375,-4.34375 c 0,-1.609375 -1.0625,-2.6875 -2.546875,-2.6875 -2.140625,0 -4.34375,2.265625 -4.34375,4.59375 0,1.65625 1.125,2.65625 2.5625,2.65625 2.109375,0 4.328125,-2.1875 4.328125,-4.5625 z m -4.28125,4.296875 c -0.984375,0 -1.671875,-0.796875 -1.671875,-2.109375 0,-0.453125 0.140625,-1.90625 0.90625,-3.0625 0.6875,-1.046875 1.65625,-1.5625 2.453125,-1.5625 0.8125,0 1.703125,0.5625 1.703125,2.046875 0,0.71875 -0.265625,2.265625 -1.25,3.5 C 4.75,-0.625 3.9375,-0.046875 3.09375,-0.046875 Z m 0,0"
               id="id-7222016d-985e-46b2-8ca2-57427042fb67" />
          </symbol>
          <symbol
             overflow="visible"
             id="id-2d99d2a4-4fcb-497a-a75f-e1b0cefbf98b">
            <path
               style="stroke:none"
               d=""
               id="id-9e48b9eb-d28f-4c1c-9e29-3cf9d687d72c" />
          </symbol>
          <symbol
             overflow="visible"
             id="id-84f46938-0b62-42c3-a300-1ae80ff696ea">
            <path
               style="stroke:none"
               d="M 3.515625,-1.265625 H 3.28125 c -0.015625,0.15625 -0.09375,0.5625 -0.1875,0.625 C 3.046875,-0.59375 2.515625,-0.59375 2.40625,-0.59375 H 1.125 c 0.734375,-0.640625 0.984375,-0.84375 1.390625,-1.171875 0.515625,-0.40625 1,-0.84375 1,-1.5 0,-0.84375 -0.734375,-1.359375 -1.625,-1.359375 -0.859375,0 -1.453125,0.609375 -1.453125,1.25 0,0.34375 0.296875,0.390625 0.375,0.390625 0.15625,0 0.359375,-0.125 0.359375,-0.375 0,-0.125 -0.046875,-0.375 -0.40625,-0.375 C 0.984375,-4.21875 1.453125,-4.375 1.78125,-4.375 c 0.703125,0 1.0625,0.546875 1.0625,1.109375 0,0.609375 -0.4375,1.078125 -0.65625,1.328125 L 0.515625,-0.265625 C 0.4375,-0.203125 0.4375,-0.1875 0.4375,0 h 2.875 z m 0,0"
               id="id-9ea4c314-905a-4be3-8e3e-5852b9b56f52" />
          </symbol>
        </g>
      </defs>
      <g
         id="id-17ab05ef-52fa-484b-97c0-238b143a7664"
         transform="translate(-149.196,-127.734)"
         style="fill:#0000ff;fill-opacity:1">
        <g
           style="fill:#0000ff;fill-opacity:1"
           id="id-b11ebfa1-c1af-4241-a9fa-53bf1d03863c">
          <g
             transform="translate(148.712,134.765)"
             id="g3577"
             style="fill:#0000ff;fill-opacity:1">
            <path
               style="fill:#0000ff;fill-opacity:1;stroke:none"
               d="m 7.375,-4.34375 c 0,-1.609375 -1.0625,-2.6875 -2.546875,-2.6875 -2.140625,0 -4.34375,2.265625 -4.34375,4.59375 0,1.65625 1.125,2.65625 2.5625,2.65625 2.109375,0 4.328125,-2.1875 4.328125,-4.5625 z m -4.28125,4.296875 c -0.984375,0 -1.671875,-0.796875 -1.671875,-2.109375 0,-0.453125 0.140625,-1.90625 0.90625,-3.0625 0.6875,-1.046875 1.65625,-1.5625 2.453125,-1.5625 0.8125,0 1.703125,0.5625 1.703125,2.046875 0,0.71875 -0.265625,2.265625 -1.25,3.5 C 4.75,-0.625 3.9375,-0.046875 3.09375,-0.046875 Z m 0,0"
               id="id-f8317051-5851-4ee1-8771-b32d0509ad0a" />
          </g>
        </g>
        <g
           style="fill:#0000ff;fill-opacity:1"
           id="id-f41de8d2-2257-444f-9c1e-cfaca2097a30">
          <g
             transform="translate(156.312,136.259)"
             id="g3581"
             style="fill:#0000ff;fill-opacity:1">
            <path
               style="fill:#0000ff;fill-opacity:1;stroke:none"
               d="M 3.515625,-1.265625 H 3.28125 c -0.015625,0.15625 -0.09375,0.5625 -0.1875,0.625 C 3.046875,-0.59375 2.515625,-0.59375 2.40625,-0.59375 H 1.125 c 0.734375,-0.640625 0.984375,-0.84375 1.390625,-1.171875 0.515625,-0.40625 1,-0.84375 1,-1.5 0,-0.84375 -0.734375,-1.359375 -1.625,-1.359375 -0.859375,0 -1.453125,0.609375 -1.453125,1.25 0,0.34375 0.296875,0.390625 0.375,0.390625 0.15625,0 0.359375,-0.125 0.359375,-0.375 0,-0.125 -0.046875,-0.375 -0.40625,-0.375 C 0.984375,-4.21875 1.453125,-4.375 1.78125,-4.375 c 0.703125,0 1.0625,0.546875 1.0625,1.109375 0,0.609375 -0.4375,1.078125 -0.65625,1.328125 L 0.515625,-0.265625 C 0.4375,-0.203125 0.4375,-0.1875 0.4375,0 h 2.875 z m 0,0"
               id="id-7d3bdf3f-c393-4b17-8e90-3ddc084b30f0" />
          </g>
        </g>
      </g>
    </g>
    <g
       id="g1931"
       transform="translate(-31.962389,36.32814)">
      <rect
         style="fill:#ffffff;fill-opacity:1;stroke:none;stroke-width:0.312869;stroke-linecap:round;stroke-linejoin:bevel;stroke-miterlimit:4;stroke-dasharray:none;stroke-dashoffset:0;stroke-opacity:1"
         id="rect1518"
         width="12.463688"
         height="10.028429"
         x="64.40799"
         y="10.164617" />
      <g
         transform="matrix(1.05833,0,0,1.05833,65.516243,10.837758)"
         ns2:version="1.8.2"
         ns2:texconverter="pdflatex"
         ns2:pdfconverter="inkscape"
         ns2:text="$O_1$"
         ns2:preamble="/home/ljma/.config/inkscape/extensions/textext/default_packages.tex"
         ns2:scale="3.0"
         ns2:alignment="middle center"
         ns2:stroke-to-path="0"
         ns2:jacobian_sqrt="1.05833"
         id="g3063"
         style="fill:#ff0000;fill-opacity:1">
        <defs
           id="id-f4df4739-ccab-4439-bdcc-a0e4e17212c7">
          <g
             id="id-f113675a-7f2c-4a69-915e-c94f813f99f8">
            <symbol
               overflow="visible"
               id="id-78c83c9c-4099-4fb5-9c19-796bcd7664a7">
              <path
                 style="stroke:none"
                 d=""
                 id="id-e89ded65-c7c7-46cb-b9d5-922f3975107a" />
            </symbol>
            <symbol
               overflow="visible"
               id="id-819e5ea7-746d-417f-a744-973db254e321">
              <path
                 style="stroke:none"
                 d="m 7.375,-4.34375 c 0,-1.609375 -1.0625,-2.6875 -2.546875,-2.6875 -2.140625,0 -4.34375,2.265625 -4.34375,4.59375 0,1.65625 1.125,2.65625 2.5625,2.65625 2.109375,0 4.328125,-2.1875 4.328125,-4.5625 z m -4.28125,4.296875 c -0.984375,0 -1.671875,-0.796875 -1.671875,-2.109375 0,-0.453125 0.140625,-1.90625 0.90625,-3.0625 0.6875,-1.046875 1.65625,-1.5625 2.453125,-1.5625 0.8125,0 1.703125,0.5625 1.703125,2.046875 0,0.71875 -0.265625,2.265625 -1.25,3.5 C 4.75,-0.625 3.9375,-0.046875 3.09375,-0.046875 Z m 0,0"
                 id="id-1080e43f-ef37-404c-b9ae-84b17c104289" />
            </symbol>
            <symbol
               overflow="visible"
               id="id-79179358-21a4-44c2-ab87-458a85255524">
              <path
                 style="stroke:none"
                 d=""
                 id="id-ed924b86-05f8-4eda-aaa2-6ff744b80d01" />
            </symbol>
            <symbol
               overflow="visible"
               id="id-7ec78f76-437d-464a-92b8-1641e52989c7">
              <path
                 style="stroke:none"
                 d="m 2.328125,-4.4375 c 0,-0.1875 0,-0.1875 -0.203125,-0.1875 -0.453125,0.4375 -1.078125,0.4375 -1.359375,0.4375 v 0.25 c 0.15625,0 0.625,0 1,-0.1875 v 3.546875 c 0,0.234375 0,0.328125 -0.6875,0.328125 H 0.8125 V 0 c 0.125,0 0.984375,-0.03125 1.234375,-0.03125 0.21875,0 1.09375,0.03125 1.25,0.03125 V -0.25 H 3.03125 c -0.703125,0 -0.703125,-0.09375 -0.703125,-0.328125 z m 0,0"
                 id="id-4f105bd5-09c2-43f4-9ec2-8fa5779bde9d" />
            </symbol>
          </g>
        </defs>
        <g
           id="id-f99c37fe-88dc-421b-b3a7-d9c8695109f1"
           transform="translate(-149.196,-127.734)"
           style="fill:#ff0000;fill-opacity:1">
          <g
             style="fill:#ff0000;fill-opacity:1"
             id="id-4b787ba6-060f-4bf1-914f-f672b18e9360">
            <g
               transform="translate(148.712,134.765)"
               id="g3741"
               style="fill:#ff0000;fill-opacity:1">
              <path
                 style="fill:#ff0000;fill-opacity:1;stroke:none"
                 d="m 7.375,-4.34375 c 0,-1.609375 -1.0625,-2.6875 -2.546875,-2.6875 -2.140625,0 -4.34375,2.265625 -4.34375,4.59375 0,1.65625 1.125,2.65625 2.5625,2.65625 2.109375,0 4.328125,-2.1875 4.328125,-4.5625 z m -4.28125,4.296875 c -0.984375,0 -1.671875,-0.796875 -1.671875,-2.109375 0,-0.453125 0.140625,-1.90625 0.90625,-3.0625 0.6875,-1.046875 1.65625,-1.5625 2.453125,-1.5625 0.8125,0 1.703125,0.5625 1.703125,2.046875 0,0.71875 -0.265625,2.265625 -1.25,3.5 C 4.75,-0.625 3.9375,-0.046875 3.09375,-0.046875 Z m 0,0"
                 id="id-ff485a81-c5b7-457e-8213-d9855069efba" />
            </g>
          </g>
          <g
             style="fill:#ff0000;fill-opacity:1"
             id="id-c993e9ab-0b04-4db3-8673-6fe128c616db">
            <g
               transform="translate(156.312,136.259)"
               id="g3745"
               style="fill:#ff0000;fill-opacity:1">
              <path
                 style="fill:#ff0000;fill-opacity:1;stroke:none"
                 d="m 2.328125,-4.4375 c 0,-0.1875 0,-0.1875 -0.203125,-0.1875 -0.453125,0.4375 -1.078125,0.4375 -1.359375,0.4375 v 0.25 c 0.15625,0 0.625,0 1,-0.1875 v 3.546875 c 0,0.234375 0,0.328125 -0.6875,0.328125 H 0.8125 V 0 c 0.125,0 0.984375,-0.03125 1.234375,-0.03125 0.21875,0 1.09375,0.03125 1.25,0.03125 V -0.25 H 3.03125 c -0.703125,0 -0.703125,-0.09375 -0.703125,-0.328125 z m 0,0"
                 id="id-2735c6c0-0087-4f82-9255-6ee0834ed8d3" />
            </g>
          </g>
        </g>
      </g>
    </g>
    <path
       style="fill:none;stroke:#ff0000;stroke-width:0.264583px;stroke-linecap:butt;stroke-linejoin:miter;stroke-opacity:1"
       d="m 51.104751,57.76469 h 61.014789 l 54.37923,-5.658149"
       id="path5681"
       sodipodi:nodetypes="ccc" />
    <path
       style="fill:none;stroke:#ff0000;stroke-width:0.2;stroke-linecap:butt;stroke-linejoin:miter;stroke-miterlimit:4;stroke-dasharray:none;stroke-opacity:1;marker-end:url(#marker1235)"
       d="m 64.849087,51.925015 5.046937,-4.66e-4"
       id="path6846"
       sodipodi:nodetypes="cc" />
    <path
       style="fill:none;stroke:#ff0000;stroke-width:0.2;stroke-linecap:butt;stroke-linejoin:miter;stroke-miterlimit:4;stroke-dasharray:none;stroke-opacity:1;marker-end:url(#marker1235)"
       d="m 64.849087,57.764457 5.046937,-4.66e-4"
       id="path7717"
       sodipodi:nodetypes="cc" />
    <path
       style="fill:none;stroke:#ff0000;stroke-width:0.2;stroke-linecap:butt;stroke-linejoin:miter;stroke-miterlimit:4;stroke-dasharray:none;stroke-opacity:1;marker-end:url(#marker1235)"
       d="m 141.57854,51.925015 5.04696,-4.66e-4"
       id="path8297"
       sodipodi:nodetypes="cc" />
    <path
       style="fill:none;stroke:#ff0000;stroke-width:0.2;stroke-linecap:butt;stroke-linejoin:miter;stroke-miterlimit:4;stroke-dasharray:none;stroke-opacity:1;marker-end:url(#marker1235)"
       d="M 141.57749,54.699723 146.6255,54.17351"
       id="path8299"
       sodipodi:nodetypes="cc" />
    <g
       transform="matrix(1.05833,0,0,1.05833,167.4258,41.668098)"
       ns2:version="1.8.2"
       ns2:texconverter="pdflatex"
       ns2:pdfconverter="inkscape"
       ns2:text="$I_1$"
       ns2:preamble="/home/ljma/.config/inkscape/extensions/textext/default_packages.tex"
       ns2:scale="3.0"
       ns2:alignment="middle center"
       ns2:stroke-to-path="0"
       ns2:jacobian_sqrt="1.05833"
       id="g10635"
       style="fill:#ff0002;fill-opacity:1">
      <defs
         id="id-4cee8c04-a419-472c-8f94-ee0e855a9394">
        <g
           id="id-72242457-483f-44b6-afb3-7874c8439327">
          <symbol
             overflow="visible"
             id="id-e6b8f135-5d19-4089-949b-7b473cf54413">
            <path
               style="stroke:none;stroke-width:0"
               d=""
               id="id-0ad547e9-2d96-4f5c-9316-9452ba311bba" />
          </symbol>
          <symbol
             overflow="visible"
             id="id-06c8c607-32b9-4f44-a221-2b056a77517f">
            <path
               style="stroke:none;stroke-width:0"
               d="M 3.734375,-6.046875 C 3.8125,-6.40625 3.84375,-6.5 4.640625,-6.5 c 0.234375,0 0.3125,0 0.3125,-0.1875 0,-0.125 -0.109375,-0.125 -0.140625,-0.125 -0.296875,0 -1.03125,0.03125 -1.328125,0.03125 -0.296875,0 -1.015625,-0.03125 -1.328125,-0.03125 -0.0625,0 -0.1875,0 -0.1875,0.203125 C 1.96875,-6.5 2.046875,-6.5 2.25,-6.5 c 0.40625,0 0.6875,0 0.6875,0.1875 0,0.046875 0,0.078125 -0.03125,0.15625 l -1.34375,5.375 c -0.09375,0.375 -0.109375,0.46875 -0.90625,0.46875 -0.234375,0 -0.3125,0 -0.3125,0.203125 C 0.34375,0 0.453125,0 0.484375,0 0.78125,0 1.5,-0.03125 1.796875,-0.03125 2.09375,-0.03125 2.828125,0 3.125,0 c 0.078125,0 0.203125,0 0.203125,-0.1875 0,-0.125 -0.078125,-0.125 -0.296875,-0.125 -0.1875,0 -0.234375,0 -0.421875,-0.015625 -0.21875,-0.015625 -0.25,-0.0625 -0.25,-0.171875 0,-0.078125 0.015625,-0.15625 0.03125,-0.234375 z m 0,0"
               id="id-f6cbc105-7e67-4296-bf70-f576dcfa3fb1" />
          </symbol>
          <symbol
             overflow="visible"
             id="id-e5723dfb-f5c2-4d4e-9771-c3b763c9b53a">
            <path
               style="stroke:none;stroke-width:0"
               d=""
               id="id-af437f98-9d45-4a89-991b-344c3be372ec" />
          </symbol>
          <symbol
             overflow="visible"
             id="id-13b742c0-199b-424f-b09b-4d5d31a068e3">
            <path
               style="stroke:none;stroke-width:0"
               d="m 2.328125,-4.4375 c 0,-0.1875 0,-0.1875 -0.203125,-0.1875 -0.453125,0.4375 -1.078125,0.4375 -1.359375,0.4375 v 0.25 c 0.15625,0 0.625,0 1,-0.1875 v 3.546875 c 0,0.234375 0,0.328125 -0.6875,0.328125 H 0.8125 V 0 c 0.125,0 0.984375,-0.03125 1.234375,-0.03125 0.21875,0 1.09375,0.03125 1.25,0.03125 V -0.25 H 3.03125 c -0.703125,0 -0.703125,-0.09375 -0.703125,-0.328125 z m 0,0"
               id="id-2ed3740b-4f22-4042-a96a-027452e6cd23" />
          </symbol>
        </g>
      </defs>
      <g
         id="id-1a1ce8f9-89b5-48fc-a5cc-9f9c8e3d3224"
         transform="translate(-149.056,-127.953)"
         style="fill:#ff0002;fill-opacity:1">
        <g
           style="fill:#ff0002;fill-opacity:1"
           id="id-d2878ea9-6cb6-45da-a0ab-0fe7dae2de36">
          <g
             transform="translate(148.712,134.765)"
             id="g10627"
             style="fill:#ff0002;fill-opacity:1">
            <path
               style="fill:#ff0002;fill-opacity:1;stroke:none;stroke-width:0"
               d="M 3.734375,-6.046875 C 3.8125,-6.40625 3.84375,-6.5 4.640625,-6.5 c 0.234375,0 0.3125,0 0.3125,-0.1875 0,-0.125 -0.109375,-0.125 -0.140625,-0.125 -0.296875,0 -1.03125,0.03125 -1.328125,0.03125 -0.296875,0 -1.015625,-0.03125 -1.328125,-0.03125 -0.0625,0 -0.1875,0 -0.1875,0.203125 C 1.96875,-6.5 2.046875,-6.5 2.25,-6.5 c 0.40625,0 0.6875,0 0.6875,0.1875 0,0.046875 0,0.078125 -0.03125,0.15625 l -1.34375,5.375 c -0.09375,0.375 -0.109375,0.46875 -0.90625,0.46875 -0.234375,0 -0.3125,0 -0.3125,0.203125 C 0.34375,0 0.453125,0 0.484375,0 0.78125,0 1.5,-0.03125 1.796875,-0.03125 2.09375,-0.03125 2.828125,0 3.125,0 c 0.078125,0 0.203125,0 0.203125,-0.1875 0,-0.125 -0.078125,-0.125 -0.296875,-0.125 -0.1875,0 -0.234375,0 -0.421875,-0.015625 -0.21875,-0.015625 -0.25,-0.0625 -0.25,-0.171875 0,-0.078125 0.015625,-0.15625 0.03125,-0.234375 z m 0,0"
               id="id-b2cc7d25-1b77-4031-ba0d-9d4d0328e718" />
          </g>
        </g>
        <g
           style="fill:#ff0002;fill-opacity:1"
           id="id-6e3cbd1b-3ee6-4cd4-884d-71deed17eab9">
          <g
             transform="translate(153.092,136.259)"
             id="g10631"
             style="fill:#ff0002;fill-opacity:1">
            <path
               style="fill:#ff0002;fill-opacity:1;stroke:none;stroke-width:0"
               d="m 2.328125,-4.4375 c 0,-0.1875 0,-0.1875 -0.203125,-0.1875 -0.453125,0.4375 -1.078125,0.4375 -1.359375,0.4375 v 0.25 c 0.15625,0 0.625,0 1,-0.1875 v 3.546875 c 0,0.234375 0,0.328125 -0.6875,0.328125 H 0.8125 V 0 c 0.125,0 0.984375,-0.03125 1.234375,-0.03125 0.21875,0 1.09375,0.03125 1.25,0.03125 V -0.25 H 3.03125 c -0.703125,0 -0.703125,-0.09375 -0.703125,-0.328125 z m 0,0"
               id="id-6e166bc4-2cc5-409c-bb7b-435fa7584611" />
          </g>
        </g>
      </g>
    </g>
    <g
       transform="matrix(1.05833,0,0,1.05833,168.24841,64.4742)"
       ns2:version="1.8.2"
       ns2:texconverter="pdflatex"
       ns2:pdfconverter="inkscape"
       ns2:text="$I_2$"
       ns2:preamble="/home/ljma/.config/inkscape/extensions/textext/default_packages.tex"
       ns2:scale="3.0"
       ns2:alignment="middle center"
       ns2:stroke-to-path="0"
       ns2:jacobian_sqrt="1.05833"
       id="g10866"
       style="fill:#0000ff;fill-opacity:1">
      <defs
         id="id-3918cb6d-982d-4373-8ef8-a12ee5008286">
        <g
           id="id-ca80e7be-08d2-4042-9f2a-5bcddd0237d8">
          <symbol
             overflow="visible"
             id="id-74fe7773-ee04-42db-ae93-d881c523284d">
            <path
               style="stroke:none;stroke-width:0"
               d=""
               id="id-185dfb23-9d84-47a8-9afb-b6acf8545c85" />
          </symbol>
          <symbol
             overflow="visible"
             id="id-605b45a4-b4a3-48e5-bb14-4533981508ed">
            <path
               style="stroke:none;stroke-width:0"
               d="M 3.734375,-6.046875 C 3.8125,-6.40625 3.84375,-6.5 4.640625,-6.5 c 0.234375,0 0.3125,0 0.3125,-0.1875 0,-0.125 -0.109375,-0.125 -0.140625,-0.125 -0.296875,0 -1.03125,0.03125 -1.328125,0.03125 -0.296875,0 -1.015625,-0.03125 -1.328125,-0.03125 -0.0625,0 -0.1875,0 -0.1875,0.203125 C 1.96875,-6.5 2.046875,-6.5 2.25,-6.5 c 0.40625,0 0.6875,0 0.6875,0.1875 0,0.046875 0,0.078125 -0.03125,0.15625 l -1.34375,5.375 c -0.09375,0.375 -0.109375,0.46875 -0.90625,0.46875 -0.234375,0 -0.3125,0 -0.3125,0.203125 C 0.34375,0 0.453125,0 0.484375,0 0.78125,0 1.5,-0.03125 1.796875,-0.03125 2.09375,-0.03125 2.828125,0 3.125,0 c 0.078125,0 0.203125,0 0.203125,-0.1875 0,-0.125 -0.078125,-0.125 -0.296875,-0.125 -0.1875,0 -0.234375,0 -0.421875,-0.015625 -0.21875,-0.015625 -0.25,-0.0625 -0.25,-0.171875 0,-0.078125 0.015625,-0.15625 0.03125,-0.234375 z m 0,0"
               id="id-0726d1ba-e3a7-46fd-98ed-b29ce579d806" />
          </symbol>
          <symbol
             overflow="visible"
             id="id-bee9976b-32bb-4aba-8eab-566e3ca0f4fc">
            <path
               style="stroke:none;stroke-width:0"
               d=""
               id="id-73ce594e-7397-4bed-91c9-c505f2c67ceb" />
          </symbol>
          <symbol
             overflow="visible"
             id="id-191725f0-b627-4ecc-a164-d59ed2bf079a">
            <path
               style="stroke:none;stroke-width:0"
               d="M 3.515625,-1.265625 H 3.28125 c -0.015625,0.15625 -0.09375,0.5625 -0.1875,0.625 C 3.046875,-0.59375 2.515625,-0.59375 2.40625,-0.59375 H 1.125 c 0.734375,-0.640625 0.984375,-0.84375 1.390625,-1.171875 0.515625,-0.40625 1,-0.84375 1,-1.5 0,-0.84375 -0.734375,-1.359375 -1.625,-1.359375 -0.859375,0 -1.453125,0.609375 -1.453125,1.25 0,0.34375 0.296875,0.390625 0.375,0.390625 0.15625,0 0.359375,-0.125 0.359375,-0.375 0,-0.125 -0.046875,-0.375 -0.40625,-0.375 C 0.984375,-4.21875 1.453125,-4.375 1.78125,-4.375 c 0.703125,0 1.0625,0.546875 1.0625,1.109375 0,0.609375 -0.4375,1.078125 -0.65625,1.328125 L 0.515625,-0.265625 C 0.4375,-0.203125 0.4375,-0.1875 0.4375,0 h 2.875 z m 0,0"
               id="id-104ce533-adaf-4848-b613-e446c5332f20" />
          </symbol>
        </g>
      </defs>
      <g
         id="id-f83c997a-e515-4b18-b177-b618b777c2d4"
         transform="translate(-149.056,-127.953)"
         style="fill:#0000ff;fill-opacity:1">
        <g
           style="fill:#0000ff;fill-opacity:1"
           id="id-26d97a50-c827-48e7-b777-1ea7adffd0b8">
          <g
             transform="translate(148.712,134.765)"
             id="g10858"
             style="fill:#0000ff;fill-opacity:1">
            <path
               style="stroke:none;stroke-width:0;fill:#0000ff;fill-opacity:1"
               d="M 3.734375,-6.046875 C 3.8125,-6.40625 3.84375,-6.5 4.640625,-6.5 c 0.234375,0 0.3125,0 0.3125,-0.1875 0,-0.125 -0.109375,-0.125 -0.140625,-0.125 -0.296875,0 -1.03125,0.03125 -1.328125,0.03125 -0.296875,0 -1.015625,-0.03125 -1.328125,-0.03125 -0.0625,0 -0.1875,0 -0.1875,0.203125 C 1.96875,-6.5 2.046875,-6.5 2.25,-6.5 c 0.40625,0 0.6875,0 0.6875,0.1875 0,0.046875 0,0.078125 -0.03125,0.15625 l -1.34375,5.375 c -0.09375,0.375 -0.109375,0.46875 -0.90625,0.46875 -0.234375,0 -0.3125,0 -0.3125,0.203125 C 0.34375,0 0.453125,0 0.484375,0 0.78125,0 1.5,-0.03125 1.796875,-0.03125 2.09375,-0.03125 2.828125,0 3.125,0 c 0.078125,0 0.203125,0 0.203125,-0.1875 0,-0.125 -0.078125,-0.125 -0.296875,-0.125 -0.1875,0 -0.234375,0 -0.421875,-0.015625 -0.21875,-0.015625 -0.25,-0.0625 -0.25,-0.171875 0,-0.078125 0.015625,-0.15625 0.03125,-0.234375 z m 0,0"
               id="id-fe52a69c-17b4-4284-8714-c6f7e43bf756" />
          </g>
        </g>
        <g
           style="fill:#0000ff;fill-opacity:1"
           id="id-39cb6ea9-3703-44f7-bbb7-2c27346fc5b9">
          <g
             transform="translate(153.092,136.259)"
             id="g10862"
             style="fill:#0000ff;fill-opacity:1">
            <path
               style="stroke:none;stroke-width:0;fill:#0000ff;fill-opacity:1"
               d="M 3.515625,-1.265625 H 3.28125 c -0.015625,0.15625 -0.09375,0.5625 -0.1875,0.625 C 3.046875,-0.59375 2.515625,-0.59375 2.40625,-0.59375 H 1.125 c 0.734375,-0.640625 0.984375,-0.84375 1.390625,-1.171875 0.515625,-0.40625 1,-0.84375 1,-1.5 0,-0.84375 -0.734375,-1.359375 -1.625,-1.359375 -0.859375,0 -1.453125,0.609375 -1.453125,1.25 0,0.34375 0.296875,0.390625 0.375,0.390625 0.15625,0 0.359375,-0.125 0.359375,-0.375 0,-0.125 -0.046875,-0.375 -0.40625,-0.375 C 0.984375,-4.21875 1.453125,-4.375 1.78125,-4.375 c 0.703125,0 1.0625,0.546875 1.0625,1.109375 0,0.609375 -0.4375,1.078125 -0.65625,1.328125 L 0.515625,-0.265625 C 0.4375,-0.203125 0.4375,-0.1875 0.4375,0 h 2.875 z m 0,0"
               id="id-09f98ff6-d179-4e39-aa88-bf2b030339c8" />
          </g>
        </g>
      </g>
    </g>
    <path
       style="fill:none;stroke:#000000;stroke-width:0.265;stroke-linecap:butt;stroke-linejoin:miter;stroke-opacity:1;stroke-miterlimit:4;stroke-dasharray:none;marker-end:url(#Arrow2Mend);marker-start:url(#Arrow2Mstart)"
       d="m 114.28144,34.943335 h 49.63383"
       id="path11497" />
    <g
       id="g12235"
       transform="translate(4.1139353,13.716912)">
      <rect
         style="fill:#ffffff;fill-opacity:1;stroke:none;stroke-width:0.264999;stroke-linecap:round;stroke-linejoin:bevel;stroke-miterlimit:4;stroke-dasharray:none;stroke-dashoffset:0;stroke-opacity:1"
         id="rect11881"
         width="7.7986193"
         height="11.498088"
         x="132.01306"
         y="15.589137" />
      <g
         transform="matrix(1.05833,0,0,1.05833,133.33071,16.394136)"
         ns2:version="1.8.2"
         ns2:texconverter="pdflatex"
         ns2:pdfconverter="inkscape"
         ns2:text="$f$"
         ns2:preamble="/home/ljma/.config/inkscape/extensions/textext/default_packages.tex"
         ns2:scale="3.0"
         ns2:alignment="middle center"
         ns2:stroke-to-path="0"
         ns2:jacobian_sqrt="1.05833"
         id="g11826">
        <defs
           id="id-b8a15b9b-22ae-400e-99b5-8a2b852c63bf">
          <g
             id="id-b29c601b-9f89-4650-8591-a69666edb681">
            <symbol
               overflow="visible"
               id="id-e3a1ad9f-c753-4a59-beed-cc48f69b0ba1">
              <path
                 style="stroke:none;stroke-width:0"
                 d=""
                 id="id-3190030f-7072-4289-a4f8-580a83dd8cc2" />
            </symbol>
            <symbol
               overflow="visible"
               id="id-3d55f2d2-61b8-4197-b744-4a071a35e883">
              <path
                 style="stroke:none;stroke-width:0"
                 d="m 3.65625,-3.984375 h 0.859375 c 0.203125,0 0.296875,0 0.296875,-0.203125 0,-0.109375 -0.09375,-0.109375 -0.265625,-0.109375 H 3.71875 L 3.921875,-5.4375 c 0.046875,-0.203125 0.1875,-0.90625 0.25,-1.03125 0.078125,-0.1875 0.25,-0.34375 0.46875,-0.34375 0.03125,0 0.296875,0 0.484375,0.1875 -0.4375,0.03125 -0.546875,0.390625 -0.546875,0.53125 0,0.234375 0.1875,0.359375 0.375,0.359375 C 5.21875,-5.734375 5.5,-5.96875 5.5,-6.34375 c 0,-0.453125 -0.453125,-0.6875 -0.859375,-0.6875 -0.34375,0 -0.96875,0.1875 -1.265625,1.171875 -0.0625,0.203125 -0.09375,0.3125 -0.328125,1.5625 h -0.6875 c -0.203125,0 -0.3125,0 -0.3125,0.1875 0,0.125 0.09375,0.125 0.28125,0.125 h 0.65625 L 2.25,-0.046875 c -0.1875,0.96875 -0.359375,1.875 -0.875,1.875 -0.046875,0 -0.28125,0 -0.484375,-0.1875 C 1.359375,1.609375 1.453125,1.25 1.453125,1.109375 1.453125,0.875 1.265625,0.75 1.078125,0.75 0.8125,0.75 0.53125,0.984375 0.53125,1.359375 c 0,0.4375 0.4375,0.6875 0.84375,0.6875 0.546875,0 0.953125,-0.59375 1.125,-0.96875 0.328125,-0.625 0.546875,-1.828125 0.5625,-1.90625 z m 0,0"
                 id="id-c2c07e5c-4427-42a0-a148-c429502c2a89" />
            </symbol>
          </g>
        </defs>
        <g
           id="id-fc980fc5-06c6-47e0-b433-fd597d899f6e"
           transform="translate(-149.243,-127.734)">
          <g
             style="fill:#000000;fill-opacity:1"
             id="id-4b1960a4-e6bd-4046-9d5e-f30b24950106">
            <g
               transform="translate(148.712,134.765)"
               id="g11822">
              <path
                 style="stroke:none;stroke-width:0"
                 d="m 3.65625,-3.984375 h 0.859375 c 0.203125,0 0.296875,0 0.296875,-0.203125 0,-0.109375 -0.09375,-0.109375 -0.265625,-0.109375 H 3.71875 L 3.921875,-5.4375 c 0.046875,-0.203125 0.1875,-0.90625 0.25,-1.03125 0.078125,-0.1875 0.25,-0.34375 0.46875,-0.34375 0.03125,0 0.296875,0 0.484375,0.1875 -0.4375,0.03125 -0.546875,0.390625 -0.546875,0.53125 0,0.234375 0.1875,0.359375 0.375,0.359375 C 5.21875,-5.734375 5.5,-5.96875 5.5,-6.34375 c 0,-0.453125 -0.453125,-0.6875 -0.859375,-0.6875 -0.34375,0 -0.96875,0.1875 -1.265625,1.171875 -0.0625,0.203125 -0.09375,0.3125 -0.328125,1.5625 h -0.6875 c -0.203125,0 -0.3125,0 -0.3125,0.1875 0,0.125 0.09375,0.125 0.28125,0.125 h 0.65625 L 2.25,-0.046875 c -0.1875,0.96875 -0.359375,1.875 -0.875,1.875 -0.046875,0 -0.28125,0 -0.484375,-0.1875 C 1.359375,1.609375 1.453125,1.25 1.453125,1.109375 1.453125,0.875 1.265625,0.75 1.078125,0.75 0.8125,0.75 0.53125,0.984375 0.53125,1.359375 c 0,0.4375 0.4375,0.6875 0.84375,0.6875 0.546875,0 0.953125,-0.59375 1.125,-0.96875 0.328125,-0.625 0.546875,-1.828125 0.5625,-1.90625 z m 0,0"
                 id="id-fa078553-edc8-42dc-86db-515604b0a74f" />
            </g>
          </g>
        </g>
      </g>
    </g>
    <text
       xml:space="preserve"
       style="font-style:normal;font-weight:normal;font-size:4.53831px;line-height:1.25;font-family:sans-serif;letter-spacing:0px;word-spacing:0px;fill:#000000;fill-opacity:1;stroke:none;stroke-width:0.378192"
       x="106.12496"
       y="23.394608"
       id="text2978"><tspan
         sodipodi:role="line"
         id="tspan2976"
         style="stroke-width:0.378192"
         x="106.12496"
         y="23.394608">Lente</tspan></text>
    <text
       xml:space="preserve"
       style="font-style:normal;font-weight:normal;font-size:4.53831px;line-height:1.25;font-family:sans-serif;letter-spacing:0px;word-spacing:0px;fill:#000000;fill-opacity:1;stroke:none;stroke-width:0.378192"
       x="168.38055"
       y="23.552444"
       id="text11655"><tspan
         sodipodi:role="line"
         id="tspan11653"
         style="stroke-width:0.378192"
         x="168.38055"
         y="23.552444">Plano</tspan><tspan
         sodipodi:role="line"
         style="stroke-width:0.378192"
         x="168.38055"
         y="29.225332"
         id="tspan11657">focal</tspan></text>
    <text
       xml:space="preserve"
       style="font-style:normal;font-weight:normal;font-size:4.53831px;line-height:1.25;font-family:sans-serif;letter-spacing:0px;word-spacing:0px;fill:#000000;fill-opacity:1;stroke:none;stroke-width:0.378192"
       x="174.3396"
       y="56.141212"
       id="text1003"><tspan
         sodipodi:role="line"
         id="tspan1001"
         style="stroke-width:0.378192"
         x="174.3396"
         y="56.141212">Eixo</tspan><tspan
         sodipodi:role="line"
         style="stroke-width:0.378192"
         x="174.3396"
         y="61.814102"
         id="tspan2017">ótico</tspan></text>
    <path
       style="fill:#ffffff;stroke:#000000;stroke-width:0.2;stroke-linecap:round;stroke-linejoin:bevel;stroke-miterlimit:4;stroke-dasharray:none;stroke-dashoffset:0;stroke-opacity:1"
       id="path1026"
       sodipodi:type="arc"
       sodipodi:cx="112.00442"
       sodipodi:cy="52.00172"
       sodipodi:rx="32.970173"
       sodipodi:ry="32.970173"
       sodipodi:start="3.1472357"
       sodipodi:end="3.4359447"
       sodipodi:open="true"
       sodipodi:arc-type="arc"
       d="M 79.034769,51.815669 A 32.970173,32.970173 0 0 1 80.452281,42.43642" />
    <g
       transform="matrix(1.05833,0,0,1.05833,72.81138,42.55468)"
       ns2:version="1.8.2"
       ns2:texconverter="pdflatex"
       ns2:pdfconverter="inkscape"
       ns2:text="$\\delta$"
       ns2:preamble="/home/ljma/.config/inkscape/extensions/textext/default_packages.tex"
       ns2:scale="3.0"
       ns2:alignment="middle center"
       ns2:stroke-to-path="0"
       ns2:inkscapeversion="1.1.2"
       ns2:jacobian_sqrt="1.05833"
       id="g1489">
      <defs
         id="id-c5214f4f-4b15-40d7-bcf3-39b7d8a52daa">
        <g
           id="id-0827f786-7600-469d-bc3b-349b2fb78dea">
          <symbol
             overflow="visible"
             id="id-3fbc7ebb-04d4-4c11-b113-7feb84be156b">
            <path
               style="stroke:none;stroke-width:0"
               d=""
               id="id-3f537f85-0acc-4184-ab50-c02daad65dcd" />
          </symbol>
          <symbol
             overflow="visible"
             id="id-8959de57-6a33-4358-88af-5298b43f4a4e">
            <path
               style="stroke:none;stroke-width:0"
               d="M 2.625,-4.359375 C 1.390625,-4.0625 0.421875,-2.765625 0.421875,-1.5625 0.421875,-0.59375 1.0625,0.125 2,0.125 c 1.15625,0 1.984375,-1.578125 1.984375,-2.953125 0,-0.90625 -0.390625,-1.40625 -0.734375,-1.84375 C 2.890625,-5.125 2.296875,-5.875 2.296875,-6.3125 c 0,-0.21875 0.203125,-0.453125 0.546875,-0.453125 0.3125,0 0.5,0.125 0.71875,0.265625 0.203125,0.125 0.390625,0.25 0.546875,0.25 C 4.359375,-6.25 4.5,-6.484375 4.5,-6.65625 4.5,-6.875 4.34375,-6.890625 3.984375,-6.984375 3.46875,-7.09375 3.328125,-7.09375 3.171875,-7.09375 c -0.78125,0 -1.140625,0.4375 -1.140625,1.03125 0,0.546875 0.296875,1.09375 0.59375,1.703125 z m 0.125,0.21875 c 0.25,0.46875 0.546875,1 0.546875,1.71875 0,0.65625 -0.375,2.328125 -1.296875,2.328125 -0.546875,0 -0.96875,-0.421875 -0.96875,-1.1875 0,-0.625 0.375,-2.5 1.71875,-2.859375 z m 0,0"
               id="id-0444c535-a987-4dff-9fe2-d7744ff0dc4d" />
          </symbol>
        </g>
      </defs>
      <g
         id="id-f095c1a0-9c95-4b7a-a6ec-27f946cd2b4c"
         transform="translate(-149.134,-127.671)">
        <g
           style="fill:#000000;fill-opacity:1"
           id="id-621ae79a-1bb3-4a2c-80f6-ef451e467090">
          <g
             transform="translate(148.712,134.765)"
             id="g1485">
            <path
               style="stroke:none;stroke-width:0"
               d="M 2.625,-4.359375 C 1.390625,-4.0625 0.421875,-2.765625 0.421875,-1.5625 0.421875,-0.59375 1.0625,0.125 2,0.125 c 1.15625,0 1.984375,-1.578125 1.984375,-2.953125 0,-0.90625 -0.390625,-1.40625 -0.734375,-1.84375 C 2.890625,-5.125 2.296875,-5.875 2.296875,-6.3125 c 0,-0.21875 0.203125,-0.453125 0.546875,-0.453125 0.3125,0 0.5,0.125 0.71875,0.265625 0.203125,0.125 0.390625,0.25 0.546875,0.25 C 4.359375,-6.25 4.5,-6.484375 4.5,-6.65625 4.5,-6.875 4.34375,-6.890625 3.984375,-6.984375 3.46875,-7.09375 3.328125,-7.09375 3.171875,-7.09375 c -0.78125,0 -1.140625,0.4375 -1.140625,1.03125 0,0.546875 0.296875,1.09375 0.59375,1.703125 z m 0.125,0.21875 c 0.25,0.46875 0.546875,1 0.546875,1.71875 0,0.65625 -0.375,2.328125 -1.296875,2.328125 -0.546875,0 -0.96875,-0.421875 -0.96875,-1.1875 0,-0.625 0.375,-2.5 1.71875,-2.859375 z m 0,0"
               id="id-b327a158-774a-40af-9a7a-d752c3c5bbd4" />
          </g>
        </g>
      </g>
    </g>
  </g>
</svg>
